<mxfile host="app.diagrams.net" modified="2020-11-04T11:38:47.421Z" agent="5.0 (Windows NT 10.0; Win64; x64) AppleWebKit/537.36 (KHTML, like Gecko) Chrome/84.0.4147.89 Safari/537.36" etag="01DQPTyOwngnBrQgj8GY" version="13.8.6" type="github">
  <diagram id="0c3g9ZIKNbL2WOg2Fm-Q" name="第 1 页">
    <mxGraphModel dx="1038" dy="548" grid="1" gridSize="10" guides="1" tooltips="1" connect="1" arrows="1" fold="1" page="1" pageScale="1" pageWidth="850" pageHeight="1100" math="0" shadow="0">
      <root>
        <mxCell id="0" />
        <mxCell id="1" parent="0" />
        <mxCell id="KwX9ynKVNIvQm__pDRTp-1" value="" style="rounded=0;whiteSpace=wrap;html=1;" vertex="1" parent="1">
          <mxGeometry x="150" y="80" width="790" height="470" as="geometry" />
        </mxCell>
        <mxCell id="KwX9ynKVNIvQm__pDRTp-38" value="&lt;br&gt;Manage AMs&lt;br&gt;&lt;br&gt;&lt;br&gt;&lt;br&gt;&lt;br&gt;&lt;br&gt;&lt;br&gt;&lt;br&gt;&lt;br&gt;&lt;br&gt;&lt;br&gt;&lt;br&gt;&lt;br&gt;&lt;br&gt;&lt;br&gt;" style="rounded=0;whiteSpace=wrap;html=1;dashed=1;" vertex="1" parent="1">
          <mxGeometry x="660" y="270" width="270" height="220" as="geometry" />
        </mxCell>
        <mxCell id="KwX9ynKVNIvQm__pDRTp-34" value="&lt;br&gt;Manage Apps&lt;br&gt;&lt;br&gt;&lt;br&gt;&lt;br&gt;&lt;br&gt;&lt;br&gt;&lt;br&gt;&lt;br&gt;&lt;br&gt;&lt;br&gt;&lt;br&gt;&lt;br&gt;&lt;br&gt;&lt;br&gt;&lt;br&gt;&lt;br&gt;&lt;br&gt;&lt;br&gt;" style="rounded=0;whiteSpace=wrap;html=1;dashed=1;" vertex="1" parent="1">
          <mxGeometry x="470" y="130" width="170" height="270" as="geometry" />
        </mxCell>
        <mxCell id="KwX9ynKVNIvQm__pDRTp-28" value="&lt;br&gt;&lt;br&gt;&lt;br&gt;&lt;br&gt;&lt;br&gt;Security&lt;br&gt;&lt;br&gt;&lt;br&gt;&lt;br&gt;&lt;br&gt;&lt;br&gt;&lt;br&gt;&lt;br&gt;&lt;br&gt;&lt;br&gt;&lt;br&gt;&lt;br&gt;&lt;br&gt;&lt;br&gt;&lt;br&gt;&lt;br&gt;&lt;br&gt;&lt;br&gt;&lt;br&gt;&lt;br&gt;&lt;br&gt;&lt;br&gt;&lt;br&gt;&lt;br&gt;" style="rounded=0;whiteSpace=wrap;html=1;dashed=1;" vertex="1" parent="1">
          <mxGeometry x="325" y="110" width="135" height="290" as="geometry" />
        </mxCell>
        <mxCell id="KwX9ynKVNIvQm__pDRTp-22" value="" style="rounded=0;whiteSpace=wrap;html=1;" vertex="1" parent="1">
          <mxGeometry x="10" y="190" width="120" height="130" as="geometry" />
        </mxCell>
        <mxCell id="KwX9ynKVNIvQm__pDRTp-15" value="&lt;br&gt;&lt;br&gt;User Service&lt;br&gt;&lt;br&gt;&lt;br&gt;&lt;br&gt;&lt;br&gt;&lt;br&gt;&lt;br&gt;&lt;br&gt;&lt;br&gt;&lt;br&gt;&lt;br&gt;" style="rounded=0;whiteSpace=wrap;html=1;dashed=1;" vertex="1" parent="1">
          <mxGeometry x="165" y="160" width="120" height="160" as="geometry" />
        </mxCell>
        <mxCell id="KwX9ynKVNIvQm__pDRTp-11" value="&lt;br&gt;&lt;br&gt;State Machine&lt;br&gt;&lt;br&gt;&lt;br&gt;&lt;br&gt;&lt;br&gt;&lt;br&gt;&lt;br&gt;&lt;br&gt;&lt;br&gt;&lt;br&gt;&lt;br&gt;&lt;br&gt;&lt;br&gt;&lt;br&gt;" style="rounded=0;whiteSpace=wrap;html=1;dashed=1;" vertex="1" parent="1">
          <mxGeometry x="170" y="350" width="110" height="190" as="geometry" />
        </mxCell>
        <mxCell id="KwX9ynKVNIvQm__pDRTp-6" value="Manage NMs&lt;br&gt;&lt;br&gt;&lt;br&gt;&lt;br&gt;&lt;br&gt;&lt;br&gt;&lt;br&gt;" style="rounded=0;whiteSpace=wrap;html=1;dashed=1;" vertex="1" parent="1">
          <mxGeometry x="325" y="410" width="315" height="130" as="geometry" />
        </mxCell>
        <mxCell id="KwX9ynKVNIvQm__pDRTp-2" value="ResourceTrackerService" style="rounded=0;whiteSpace=wrap;html=1;" vertex="1" parent="1">
          <mxGeometry x="340" y="500" width="280" height="40" as="geometry" />
        </mxCell>
        <mxCell id="KwX9ynKVNIvQm__pDRTp-4" value="NMLivelinessMonitor" style="rounded=0;whiteSpace=wrap;html=1;" vertex="1" parent="1">
          <mxGeometry x="352.5" y="450" width="120" height="40" as="geometry" />
        </mxCell>
        <mxCell id="KwX9ynKVNIvQm__pDRTp-5" value="NMLivelinessMonitor" style="rounded=0;whiteSpace=wrap;html=1;" vertex="1" parent="1">
          <mxGeometry x="485" y="450" width="120" height="40" as="geometry" />
        </mxCell>
        <mxCell id="KwX9ynKVNIvQm__pDRTp-7" value="RMApp" style="rounded=0;whiteSpace=wrap;html=1;" vertex="1" parent="1">
          <mxGeometry x="180" y="390" width="90" height="30" as="geometry" />
        </mxCell>
        <mxCell id="KwX9ynKVNIvQm__pDRTp-8" value="RMAppAttempt" style="rounded=0;whiteSpace=wrap;html=1;" vertex="1" parent="1">
          <mxGeometry x="180" y="430" width="90" height="30" as="geometry" />
        </mxCell>
        <mxCell id="KwX9ynKVNIvQm__pDRTp-9" value="RMContainer" style="rounded=0;whiteSpace=wrap;html=1;" vertex="1" parent="1">
          <mxGeometry x="180" y="470" width="90" height="30" as="geometry" />
        </mxCell>
        <mxCell id="KwX9ynKVNIvQm__pDRTp-10" value="RMNode" style="rounded=0;whiteSpace=wrap;html=1;" vertex="1" parent="1">
          <mxGeometry x="180" y="510" width="90" height="30" as="geometry" />
        </mxCell>
        <mxCell id="KwX9ynKVNIvQm__pDRTp-12" value="ClientRMService" style="rounded=0;whiteSpace=wrap;html=1;" vertex="1" parent="1">
          <mxGeometry x="175" y="200" width="100" height="30" as="geometry" />
        </mxCell>
        <mxCell id="KwX9ynKVNIvQm__pDRTp-13" value="AdminService" style="rounded=0;whiteSpace=wrap;html=1;" vertex="1" parent="1">
          <mxGeometry x="175" y="240" width="100" height="30" as="geometry" />
        </mxCell>
        <mxCell id="KwX9ynKVNIvQm__pDRTp-14" value="RMWebApp" style="rounded=0;whiteSpace=wrap;html=1;" vertex="1" parent="1">
          <mxGeometry x="175" y="280" width="100" height="30" as="geometry" />
        </mxCell>
        <mxCell id="KwX9ynKVNIvQm__pDRTp-21" style="edgeStyle=orthogonalEdgeStyle;rounded=0;orthogonalLoop=1;jettySize=auto;html=1;entryX=0;entryY=0.5;entryDx=0;entryDy=0;" edge="1" parent="1" source="KwX9ynKVNIvQm__pDRTp-16" target="KwX9ynKVNIvQm__pDRTp-12">
          <mxGeometry relative="1" as="geometry" />
        </mxCell>
        <mxCell id="KwX9ynKVNIvQm__pDRTp-16" value="Normal User" style="rounded=0;whiteSpace=wrap;html=1;" vertex="1" parent="1">
          <mxGeometry x="20" y="200" width="100" height="30" as="geometry" />
        </mxCell>
        <mxCell id="KwX9ynKVNIvQm__pDRTp-20" style="edgeStyle=orthogonalEdgeStyle;rounded=0;orthogonalLoop=1;jettySize=auto;html=1;" edge="1" parent="1" source="KwX9ynKVNIvQm__pDRTp-17" target="KwX9ynKVNIvQm__pDRTp-13">
          <mxGeometry relative="1" as="geometry" />
        </mxCell>
        <mxCell id="KwX9ynKVNIvQm__pDRTp-17" value="Admin User" style="rounded=0;whiteSpace=wrap;html=1;" vertex="1" parent="1">
          <mxGeometry x="20" y="240" width="100" height="30" as="geometry" />
        </mxCell>
        <mxCell id="KwX9ynKVNIvQm__pDRTp-19" style="edgeStyle=orthogonalEdgeStyle;rounded=0;orthogonalLoop=1;jettySize=auto;html=1;entryX=0;entryY=0.5;entryDx=0;entryDy=0;" edge="1" parent="1" source="KwX9ynKVNIvQm__pDRTp-18" target="KwX9ynKVNIvQm__pDRTp-14">
          <mxGeometry relative="1" as="geometry" />
        </mxCell>
        <mxCell id="KwX9ynKVNIvQm__pDRTp-18" value="Web UI" style="rounded=0;whiteSpace=wrap;html=1;" vertex="1" parent="1">
          <mxGeometry x="20" y="280" width="100" height="30" as="geometry" />
        </mxCell>
        <mxCell id="KwX9ynKVNIvQm__pDRTp-23" value="ApplicationToken&lt;br&gt;SecretManager" style="rounded=0;whiteSpace=wrap;html=1;" vertex="1" parent="1">
          <mxGeometry x="332.5" y="350" width="120" height="40" as="geometry" />
        </mxCell>
        <mxCell id="KwX9ynKVNIvQm__pDRTp-24" value="ContainerToken&lt;br&gt;SecretManager" style="rounded=0;whiteSpace=wrap;html=1;" vertex="1" parent="1">
          <mxGeometry x="332.5" y="300" width="120" height="40" as="geometry" />
        </mxCell>
        <mxCell id="KwX9ynKVNIvQm__pDRTp-25" value="ClientToAM&lt;br&gt;SecretManager" style="rounded=0;whiteSpace=wrap;html=1;" vertex="1" parent="1">
          <mxGeometry x="332.5" y="250" width="120" height="40" as="geometry" />
        </mxCell>
        <mxCell id="KwX9ynKVNIvQm__pDRTp-26" value="Delegation&lt;br&gt;TokenRenewer" style="rounded=0;whiteSpace=wrap;html=1;" vertex="1" parent="1">
          <mxGeometry x="332.5" y="200" width="120" height="40" as="geometry" />
        </mxCell>
        <mxCell id="KwX9ynKVNIvQm__pDRTp-27" value="&lt;div&gt;RMDelegationToken&lt;/div&gt;&lt;div&gt;SecretManager&lt;/div&gt;" style="rounded=0;whiteSpace=wrap;html=1;" vertex="1" parent="1">
          <mxGeometry x="332.5" y="150" width="120" height="40" as="geometry" />
        </mxCell>
        <mxCell id="KwX9ynKVNIvQm__pDRTp-30" value="ContainerAllocationExpirer" style="rounded=0;whiteSpace=wrap;html=1;" vertex="1" parent="1">
          <mxGeometry x="472.5" y="270" width="165" height="40" as="geometry" />
        </mxCell>
        <mxCell id="KwX9ynKVNIvQm__pDRTp-31" value="RMAppManager" style="rounded=0;whiteSpace=wrap;html=1;" vertex="1" parent="1">
          <mxGeometry x="472.5" y="220" width="165" height="40" as="geometry" />
        </mxCell>
        <mxCell id="KwX9ynKVNIvQm__pDRTp-32" value="ApplicationACLsManager" style="rounded=0;whiteSpace=wrap;html=1;" vertex="1" parent="1">
          <mxGeometry x="472.5" y="170" width="165" height="40" as="geometry" />
        </mxCell>
        <mxCell id="KwX9ynKVNIvQm__pDRTp-33" value="&lt;span&gt;Resource&lt;/span&gt;&lt;br&gt;&lt;span&gt;Scheduler&lt;/span&gt;" style="ellipse;whiteSpace=wrap;html=1;aspect=fixed;" vertex="1" parent="1">
          <mxGeometry x="515" y="320" width="80" height="80" as="geometry" />
        </mxCell>
        <mxCell id="KwX9ynKVNIvQm__pDRTp-35" value="ApplicationMasterService" style="rounded=0;whiteSpace=wrap;html=1;" vertex="1" parent="1">
          <mxGeometry x="670" y="410" width="250" height="60" as="geometry" />
        </mxCell>
        <mxCell id="KwX9ynKVNIvQm__pDRTp-36" value="ApplicationMaster&lt;br&gt;Launcher" style="rounded=0;whiteSpace=wrap;html=1;" vertex="1" parent="1">
          <mxGeometry x="670" y="330" width="120" height="60" as="geometry" />
        </mxCell>
        <mxCell id="KwX9ynKVNIvQm__pDRTp-37" value="AMLiveliness&lt;br&gt;Monitor" style="rounded=0;whiteSpace=wrap;html=1;" vertex="1" parent="1">
          <mxGeometry x="800" y="330" width="120" height="60" as="geometry" />
        </mxCell>
        <mxCell id="KwX9ynKVNIvQm__pDRTp-44" style="edgeStyle=orthogonalEdgeStyle;rounded=0;orthogonalLoop=1;jettySize=auto;html=1;entryX=0.25;entryY=1;entryDx=0;entryDy=0;" edge="1" parent="1" source="KwX9ynKVNIvQm__pDRTp-39" target="KwX9ynKVNIvQm__pDRTp-2">
          <mxGeometry relative="1" as="geometry" />
        </mxCell>
        <mxCell id="KwX9ynKVNIvQm__pDRTp-39" value="NodeManager" style="rounded=0;whiteSpace=wrap;html=1;" vertex="1" parent="1">
          <mxGeometry x="320" y="580" width="90" height="40" as="geometry" />
        </mxCell>
        <mxCell id="KwX9ynKVNIvQm__pDRTp-42" style="edgeStyle=orthogonalEdgeStyle;rounded=0;orthogonalLoop=1;jettySize=auto;html=1;entryX=0.5;entryY=1;entryDx=0;entryDy=0;" edge="1" parent="1" source="KwX9ynKVNIvQm__pDRTp-40" target="KwX9ynKVNIvQm__pDRTp-2">
          <mxGeometry relative="1" as="geometry" />
        </mxCell>
        <mxCell id="KwX9ynKVNIvQm__pDRTp-40" value="NodeManager" style="rounded=0;whiteSpace=wrap;html=1;" vertex="1" parent="1">
          <mxGeometry x="435" y="580" width="90" height="40" as="geometry" />
        </mxCell>
        <mxCell id="KwX9ynKVNIvQm__pDRTp-43" style="edgeStyle=orthogonalEdgeStyle;rounded=0;orthogonalLoop=1;jettySize=auto;html=1;entryX=0.75;entryY=1;entryDx=0;entryDy=0;" edge="1" parent="1" source="KwX9ynKVNIvQm__pDRTp-41" target="KwX9ynKVNIvQm__pDRTp-2">
          <mxGeometry relative="1" as="geometry" />
        </mxCell>
        <mxCell id="KwX9ynKVNIvQm__pDRTp-41" value="NodeManager" style="rounded=0;whiteSpace=wrap;html=1;" vertex="1" parent="1">
          <mxGeometry x="550" y="580" width="90" height="40" as="geometry" />
        </mxCell>
        <mxCell id="KwX9ynKVNIvQm__pDRTp-53" style="edgeStyle=orthogonalEdgeStyle;rounded=0;orthogonalLoop=1;jettySize=auto;html=1;entryX=0.25;entryY=1;entryDx=0;entryDy=0;" edge="1" parent="1" source="KwX9ynKVNIvQm__pDRTp-46" target="KwX9ynKVNIvQm__pDRTp-35">
          <mxGeometry relative="1" as="geometry" />
        </mxCell>
        <mxCell id="KwX9ynKVNIvQm__pDRTp-46" value="ApplicationMaster" style="rounded=0;whiteSpace=wrap;html=1;" vertex="1" parent="1">
          <mxGeometry x="670" y="580" width="110" height="40" as="geometry" />
        </mxCell>
        <mxCell id="KwX9ynKVNIvQm__pDRTp-51" style="edgeStyle=orthogonalEdgeStyle;rounded=0;orthogonalLoop=1;jettySize=auto;html=1;entryX=0.75;entryY=1;entryDx=0;entryDy=0;" edge="1" parent="1" source="KwX9ynKVNIvQm__pDRTp-47" target="KwX9ynKVNIvQm__pDRTp-35">
          <mxGeometry relative="1" as="geometry" />
        </mxCell>
        <mxCell id="KwX9ynKVNIvQm__pDRTp-47" value="ApplicationMaster" style="rounded=0;whiteSpace=wrap;html=1;" vertex="1" parent="1">
          <mxGeometry x="820" y="580" width="100" height="40" as="geometry" />
        </mxCell>
      </root>
    </mxGraphModel>
  </diagram>
</mxfile>
